 0
SECTION
 2
HEADER
 9
$ACADVER
 1
AC1009
 0
ENDSEC
 0
SECTION
 2
TABLES
 0
TABLE
 2
LTYPE
 70
1
 0
LTYPE
 2
CONTINUOUS
 70
64
 3
solid line
 72
65
 73
0
 40
0.0
 0
ENDTAB
 0
TABLE
 2
LAYER
 70
6
 0
LAYER
 2
0
 70
0
 62
7
 6
CONTINUOUS
 0
LAYER
 2
KAT-HAUPTSEGEL
 70
64
 62
7
 6
CONTINUOUS
 0
ENDTAB
 0
ENDSEC
 0
SECTION
 2
BLOCKS
 0
ENDSEC
 0
SECTION
 2
ENTITIES
 0
POLYLINE
 8
KAT-HAUPTSEGEL
 66
1
 10
0.0
 20
0.0
 30
0.0
 70
64
 71
59
 72
114
 0
VERTEX
 8
KAT-HAUPTSEGEL
 10
0.0206
 20
-0.6322
 30
0.0915
 70
192
 0
VERTEX
 8
KAT-HAUPTSEGEL
 10
0.0206
 20
0.0028
 30
0.0915
 70
192
 0
VERTEX
 8
KAT-HAUPTSEGEL
 10
0.0206
 20
0.0028
 30
0.0913
 70
192
 0
VERTEX
 8
KAT-HAUPTSEGEL
 10
0.0206
 20
-0.6322
 30
0.0913
 70
192
 0
VERTEX
 8
KAT-HAUPTSEGEL
 10
0.2726
 20
0.0028
 30
0.0915
 70
192
 0
VERTEX
 8
KAT-HAUPTSEGEL
 10
0.272
 20
-0.0337
 30
0.0915
 70
192
 0
VERTEX
 8
KAT-HAUPTSEGEL
 10
0.2494
 20
-0.2242
 30
0.0913
 70
192
 0
VERTEX
 8
KAT-HAUPTSEGEL
 10
0.0756
 20
-0.6322
 30
0.0915
 70
192
 0
VERTEX
 8
KAT-HAUPTSEGEL
 10
0.0873
 20
-0.6148
 30
0.0915
 70
192
 0
VERTEX
 8
KAT-HAUPTSEGEL
 10
0.0973
 20
-0.5993
 30
0.0915
 70
192
 0
VERTEX
 8
KAT-HAUPTSEGEL
 10
0.1058
 20
-0.5857
 30
0.0915
 70
192
 0
VERTEX
 8
KAT-HAUPTSEGEL
 10
0.1131
 20
-0.5737
 30
0.0915
 70
192
 0
VERTEX
 8
KAT-HAUPTSEGEL
 10
0.1255
 20
-0.5525
 30
0.0915
 70
192
 0
VERTEX
 8
KAT-HAUPTSEGEL
 10
0.1433
 20
-0.5201
 30
0.0915
 70
192
 0
VERTEX
 8
KAT-HAUPTSEGEL
 10
0.1599
 20
-0.4871
 30
0.0915
 70
192
 0
VERTEX
 8
KAT-HAUPTSEGEL
 10
0.2463
 20
-0.2388
 30
0.0913
 70
192
 0
VERTEX
 8
KAT-HAUPTSEGEL
 10
0.2403
 20
-0.2643
 30
0.0913
 70
192
 0
VERTEX
 8
KAT-HAUPTSEGEL
 10
0.1981
 20
-0.3992
 30
0.0915
 70
192
 0
VERTEX
 8
KAT-HAUPTSEGEL
 10
0.2065
 20
-0.3765
 30
0.0915
 70
192
 0
VERTEX
 8
KAT-HAUPTSEGEL
 10
0.2135
 20
-0.3564
 30
0.0915
 70
192
 0
VERTEX
 8
KAT-HAUPTSEGEL
 10
0.2193
 20
-0.3387
 30
0.0915
 70
192
 0
VERTEX
 8
KAT-HAUPTSEGEL
 10
0.2355
 20
-0.2833
 30
0.0913
 70
192
 0
VERTEX
 8
KAT-HAUPTSEGEL
 10
0.2282
 20
-0.3096
 30
0.0915
 70
192
 0
VERTEX
 8
KAT-HAUPTSEGEL
 10
0.2349
 20
-0.2855
 30
0.0915
 70
192
 0
VERTEX
 8
KAT-HAUPTSEGEL
 10
0.2276
 20
-0.3117
 30
0.0913
 70
192
 0
VERTEX
 8
KAT-HAUPTSEGEL
 10
0.2517
 20
-0.2126
 30
0.0915
 70
192
 0
VERTEX
 8
KAT-HAUPTSEGEL
 10
0.2566
 20
-0.186
 30
0.0915
 70
192
 0
VERTEX
 8
KAT-HAUPTSEGEL
 10
0.2603
 20
-0.1626
 30
0.0915
 70
192
 0
VERTEX
 8
KAT-HAUPTSEGEL
 10
0.2632
 20
-0.142
 30
0.0915
 70
192
 0
VERTEX
 8
KAT-HAUPTSEGEL
 10
0.2654
 20
-0.124
 30
0.0915
 70
192
 0
VERTEX
 8
KAT-HAUPTSEGEL
 10
0.1711
 20
-0.4635
 30
0.0913
 70
192
 0
VERTEX
 8
KAT-HAUPTSEGEL
 10
0.1637
 20
-0.4793
 30
0.0913
 70
192
 0
VERTEX
 8
KAT-HAUPTSEGEL
 10
0.1571
 20
-0.493
 30
0.0913
 70
192
 0
VERTEX
 8
KAT-HAUPTSEGEL
 10
0.145
 20
-0.5169
 30
0.0913
 70
192
 0
VERTEX
 8
KAT-HAUPTSEGEL
 10
0.1355
 20
-0.5345
 30
0.0913
 70
192
 0
VERTEX
 8
KAT-HAUPTSEGEL
 10
0.1792
 20
-0.4453
 30
0.0913
 70
192
 0
VERTEX
 8
KAT-HAUPTSEGEL
 10
0.1208
 20
-0.5607
 30
0.0913
 70
192
 0
VERTEX
 8
KAT-HAUPTSEGEL
 10
0.1053
 20
-0.5866
 30
0.0913
 70
192
 0
VERTEX
 8
KAT-HAUPTSEGEL
 10
0.0907
 20
-0.6096
 30
0.0913
 70
192
 0
VERTEX
 8
KAT-HAUPTSEGEL
 10
0.0756
 20
-0.6322
 30
0.0913
 70
192
 0
VERTEX
 8
KAT-HAUPTSEGEL
 10
0.1881
 20
-0.4243
 30
0.0913
 70
192
 0
VERTEX
 8
KAT-HAUPTSEGEL
 10
0.1753
 20
-0.4542
 30
0.0915
 70
192
 0
VERTEX
 8
KAT-HAUPTSEGEL
 10
0.1878
 20
-0.425
 30
0.0915
 70
192
 0
VERTEX
 8
KAT-HAUPTSEGEL
 10
0.2726
 20
0.0028
 30
0.0913
 70
192
 0
VERTEX
 8
KAT-HAUPTSEGEL
 10
0.2717
 20
-0.0408
 30
0.0913
 70
192
 0
VERTEX
 8
KAT-HAUPTSEGEL
 10
0.2696
 20
-0.0788
 30
0.0913
 70
192
 0
VERTEX
 8
KAT-HAUPTSEGEL
 10
0.2667
 20
-0.112
 30
0.0913
 70
192
 0
VERTEX
 8
KAT-HAUPTSEGEL
 10
0.2633
 20
-0.1409
 30
0.0913
 70
192
 0
VERTEX
 8
KAT-HAUPTSEGEL
 10
0.2598
 20
-0.1662
 30
0.0913
 70
192
 0
VERTEX
 8
KAT-HAUPTSEGEL
 10
0.2562
 20
-0.1882
 30
0.0913
 70
192
 0
VERTEX
 8
KAT-HAUPTSEGEL
 10
0.2527
 20
-0.2074
 30
0.0913
 70
192
 0
VERTEX
 8
KAT-HAUPTSEGEL
 10
0.2242
 20
-0.3232
 30
0.0915
 70
192
 0
VERTEX
 8
KAT-HAUPTSEGEL
 10
0.2439
 20
-0.2492
 30
0.0915
 70
192
 0
VERTEX
 8
KAT-HAUPTSEGEL
 10
0.2671
 20
-0.1082
 30
0.0915
 70
192
 0
VERTEX
 8
KAT-HAUPTSEGEL
 10
0.2684
 20
-0.0944
 30
0.0915
 70
192
 0
VERTEX
 8
KAT-HAUPTSEGEL
 10
0.2702
 20
-0.0701
 30
0.0915
 70
192
 0
VERTEX
 8
KAT-HAUPTSEGEL
 10
0.219
 20
-0.3399
 30
0.0913
 70
192
 0
VERTEX
 8
KAT-HAUPTSEGEL
 10
0.2081
 20
-0.3722
 30
0.0913
 70
192
 0
VERTEX
 8
KAT-HAUPTSEGEL
 10
0.1977
 20
-0.4001
 30
0.0913
 70
192
 0
VERTEX
 8
KAT-HAUPTSEGEL
 10
0
 20
0
 30
0
 70
128
 71
2
 72
1
 73
3
 74
3
 0
VERTEX
 8
KAT-HAUPTSEGEL
 10
0
 20
0
 30
0
 70
128
 71
4
 72
3
 73
1
 74
1
 0
VERTEX
 8
KAT-HAUPTSEGEL
 10
0
 20
0
 30
0
 70
128
 71
9
 72
8
 73
1
 74
1
 0
VERTEX
 8
KAT-HAUPTSEGEL
 10
0
 20
0
 30
0
 70
128
 71
10
 72
9
 73
1
 74
1
 0
VERTEX
 8
KAT-HAUPTSEGEL
 10
0
 20
0
 30
0
 70
128
 71
11
 72
10
 73
1
 74
1
 0
VERTEX
 8
KAT-HAUPTSEGEL
 10
0
 20
0
 30
0
 70
128
 71
12
 72
11
 73
1
 74
1
 0
VERTEX
 8
KAT-HAUPTSEGEL
 10
0
 20
0
 30
0
 70
128
 71
2
 72
5
 73
6
 74
6
 0
VERTEX
 8
KAT-HAUPTSEGEL
 10
0
 20
0
 30
0
 70
128
 71
6
 72
56
 73
2
 74
2
 0
VERTEX
 8
KAT-HAUPTSEGEL
 10
0
 20
0
 30
0
 70
128
 71
56
 72
55
 73
2
 74
2
 0
VERTEX
 8
KAT-HAUPTSEGEL
 10
0
 20
0
 30
0
 70
128
 71
55
 72
54
 73
2
 74
2
 0
VERTEX
 8
KAT-HAUPTSEGEL
 10
0
 20
0
 30
0
 70
128
 71
13
 72
12
 73
1
 74
1
 0
VERTEX
 8
KAT-HAUPTSEGEL
 10
0
 20
0
 30
0
 70
128
 71
54
 72
30
 73
2
 74
2
 0
VERTEX
 8
KAT-HAUPTSEGEL
 10
0
 20
0
 30
0
 70
128
 71
30
 72
29
 73
2
 74
2
 0
VERTEX
 8
KAT-HAUPTSEGEL
 10
0
 20
0
 30
0
 70
128
 71
29
 72
28
 73
2
 74
2
 0
VERTEX
 8
KAT-HAUPTSEGEL
 10
0
 20
0
 30
0
 70
128
 71
28
 72
27
 73
2
 74
2
 0
VERTEX
 8
KAT-HAUPTSEGEL
 10
0
 20
0
 30
0
 70
128
 71
27
 72
26
 73
2
 74
2
 0
VERTEX
 8
KAT-HAUPTSEGEL
 10
0
 20
0
 30
0
 70
128
 71
26
 72
53
 73
2
 74
2
 0
VERTEX
 8
KAT-HAUPTSEGEL
 10
0
 20
0
 30
0
 70
128
 71
14
 72
13
 73
1
 74
1
 0
VERTEX
 8
KAT-HAUPTSEGEL
 10
0
 20
0
 30
0
 70
128
 71
53
 72
24
 73
2
 74
2
 0
VERTEX
 8
KAT-HAUPTSEGEL
 10
0
 20
0
 30
0
 70
128
 71
24
 72
23
 73
2
 74
2
 0
VERTEX
 8
KAT-HAUPTSEGEL
 10
0
 20
0
 30
0
 70
128
 71
23
 72
52
 73
2
 74
2
 0
VERTEX
 8
KAT-HAUPTSEGEL
 10
0
 20
0
 30
0
 70
128
 71
52
 72
21
 73
2
 74
2
 0
VERTEX
 8
KAT-HAUPTSEGEL
 10
0
 20
0
 30
0
 70
128
 71
21
 72
20
 73
2
 74
2
 0
VERTEX
 8
KAT-HAUPTSEGEL
 10
0
 20
0
 30
0
 70
128
 71
15
 72
14
 73
1
 74
1
 0
VERTEX
 8
KAT-HAUPTSEGEL
 10
0
 20
0
 30
0
 70
128
 71
20
 72
19
 73
2
 74
2
 0
VERTEX
 8
KAT-HAUPTSEGEL
 10
0
 20
0
 30
0
 70
128
 71
19
 72
18
 73
2
 74
2
 0
VERTEX
 8
KAT-HAUPTSEGEL
 10
0
 20
0
 30
0
 70
128
 71
18
 72
43
 73
2
 74
2
 0
VERTEX
 8
KAT-HAUPTSEGEL
 10
0
 20
0
 30
0
 70
128
 71
43
 72
42
 73
2
 74
2
 0
VERTEX
 8
KAT-HAUPTSEGEL
 10
0
 20
0
 30
0
 70
128
 71
42
 72
15
 73
1
 74
1
 0
VERTEX
 8
KAT-HAUPTSEGEL
 10
0
 20
0
 30
0
 70
128
 71
1
 72
2
 73
42
 74
42
 0
VERTEX
 8
KAT-HAUPTSEGEL
 10
0
 20
0
 30
0
 70
128
 71
5
 72
2
 73
44
 74
44
 0
VERTEX
 8
KAT-HAUPTSEGEL
 10
0
 20
0
 30
0
 70
128
 71
3
 72
44
 73
2
 74
2
 0
VERTEX
 8
KAT-HAUPTSEGEL
 10
0
 20
0
 30
0
 70
128
 71
4
 72
40
 73
39
 74
39
 0
VERTEX
 8
KAT-HAUPTSEGEL
 10
0
 20
0
 30
0
 70
128
 71
39
 72
38
 73
4
 74
4
 0
VERTEX
 8
KAT-HAUPTSEGEL
 10
0
 20
0
 30
0
 70
128
 71
38
 72
37
 73
4
 74
4
 0
VERTEX
 8
KAT-HAUPTSEGEL
 10
0
 20
0
 30
0
 70
128
 71
45
 72
44
 73
3
 74
3
 0
VERTEX
 8
KAT-HAUPTSEGEL
 10
0
 20
0
 30
0
 70
128
 71
46
 72
45
 73
3
 74
3
 0
VERTEX
 8
KAT-HAUPTSEGEL
 10
0
 20
0
 30
0
 70
128
 71
47
 72
46
 73
3
 74
3
 0
VERTEX
 8
KAT-HAUPTSEGEL
 10
0
 20
0
 30
0
 70
128
 71
48
 72
47
 73
3
 74
3
 0
VERTEX
 8
KAT-HAUPTSEGEL
 10
0
 20
0
 30
0
 70
128
 71
49
 72
48
 73
3
 74
3
 0
VERTEX
 8
KAT-HAUPTSEGEL
 10
0
 20
0
 30
0
 70
128
 71
50
 72
49
 73
3
 74
3
 0
VERTEX
 8
KAT-HAUPTSEGEL
 10
0
 20
0
 30
0
 70
128
 71
37
 72
35
 73
4
 74
4
 0
VERTEX
 8
KAT-HAUPTSEGEL
 10
0
 20
0
 30
0
 70
128
 71
51
 72
50
 73
3
 74
3
 0
VERTEX
 8
KAT-HAUPTSEGEL
 10
0
 20
0
 30
0
 70
128
 71
7
 72
51
 73
3
 74
3
 0
VERTEX
 8
KAT-HAUPTSEGEL
 10
0
 20
0
 30
0
 70
128
 71
16
 72
7
 73
3
 74
3
 0
VERTEX
 8
KAT-HAUPTSEGEL
 10
0
 20
0
 30
0
 70
128
 71
17
 72
16
 73
3
 74
3
 0
VERTEX
 8
KAT-HAUPTSEGEL
 10
0
 20
0
 30
0
 70
128
 71
22
 72
17
 73
3
 74
3
 0
VERTEX
 8
KAT-HAUPTSEGEL
 10
0
 20
0
 30
0
 70
128
 71
35
 72
34
 73
4
 74
4
 0
VERTEX
 8
KAT-HAUPTSEGEL
 10
0
 20
0
 30
0
 70
128
 71
25
 72
22
 73
3
 74
3
 0
VERTEX
 8
KAT-HAUPTSEGEL
 10
0
 20
0
 30
0
 70
128
 71
57
 72
25
 73
3
 74
3
 0
VERTEX
 8
KAT-HAUPTSEGEL
 10
0
 20
0
 30
0
 70
128
 71
58
 72
57
 73
3
 74
3
 0
VERTEX
 8
KAT-HAUPTSEGEL
 10
0
 20
0
 30
0
 70
128
 71
34
 72
33
 73
4
 74
4
 0
VERTEX
 8
KAT-HAUPTSEGEL
 10
0
 20
0
 30
0
 70
128
 71
59
 72
58
 73
3
 74
3
 0
VERTEX
 8
KAT-HAUPTSEGEL
 10
0
 20
0
 30
0
 70
128
 71
41
 72
59
 73
3
 74
3
 0
VERTEX
 8
KAT-HAUPTSEGEL
 10
0
 20
0
 30
0
 70
128
 71
33
 72
32
 73
4
 74
4
 0
VERTEX
 8
KAT-HAUPTSEGEL
 10
0
 20
0
 30
0
 70
128
 71
36
 72
41
 73
3
 74
3
 0
VERTEX
 8
KAT-HAUPTSEGEL
 10
0
 20
0
 30
0
 70
128
 71
31
 72
36
 73
3
 74
3
 0
VERTEX
 8
KAT-HAUPTSEGEL
 10
0
 20
0
 30
0
 70
128
 71
32
 72
31
 73
4
 74
4
 0
VERTEX
 8
KAT-HAUPTSEGEL
 10
0
 20
0
 30
0
 70
128
 71
3
 72
4
 73
31
 74
31
 0
VERTEX
 8
KAT-HAUPTSEGEL
 10
0
 20
0
 30
0
 70
128
 71
1
 72
8
 73
4
 74
4
 0
VERTEX
 8
KAT-HAUPTSEGEL
 10
0
 20
0
 30
0
 70
128
 71
40
 72
4
 73
8
 74
8
 0
VERTEX
 8
KAT-HAUPTSEGEL
 10
0
 20
0
 30
0
 70
128
 71
40
 72
8
 73
9
 74
9
 0
VERTEX
 8
KAT-HAUPTSEGEL
 10
0
 20
0
 30
0
 70
128
 71
39
 72
40
 73
9
 74
9
 0
VERTEX
 8
KAT-HAUPTSEGEL
 10
0
 20
0
 30
0
 70
128
 71
9
 72
10
 73
39
 74
39
 0
VERTEX
 8
KAT-HAUPTSEGEL
 10
0
 20
0
 30
0
 70
128
 71
6
 72
5
 73
44
 74
44
 0
VERTEX
 8
KAT-HAUPTSEGEL
 10
0
 20
0
 30
0
 70
128
 71
44
 72
45
 73
6
 74
6
 0
VERTEX
 8
KAT-HAUPTSEGEL
 10
0
 20
0
 30
0
 70
128
 71
55
 72
56
 73
46
 74
46
 0
VERTEX
 8
KAT-HAUPTSEGEL
 10
0
 20
0
 30
0
 70
128
 71
45
 72
46
 73
6
 74
6
 0
VERTEX
 8
KAT-HAUPTSEGEL
 10
0
 20
0
 30
0
 70
128
 71
56
 72
6
 73
46
 74
46
 0
VERTEX
 8
KAT-HAUPTSEGEL
 10
0
 20
0
 30
0
 70
128
 71
29
 72
30
 73
48
 74
48
 0
VERTEX
 8
KAT-HAUPTSEGEL
 10
0
 20
0
 30
0
 70
128
 71
46
 72
47
 73
55
 74
55
 0
VERTEX
 8
KAT-HAUPTSEGEL
 10
0
 20
0
 30
0
 70
128
 71
54
 72
55
 73
47
 74
47
 0
VERTEX
 8
KAT-HAUPTSEGEL
 10
0
 20
0
 30
0
 70
128
 71
30
 72
54
 73
47
 74
47
 0
VERTEX
 8
KAT-HAUPTSEGEL
 10
0
 20
0
 30
0
 70
128
 71
47
 72
48
 73
30
 74
30
 0
VERTEX
 8
KAT-HAUPTSEGEL
 10
0
 20
0
 30
0
 70
128
 71
26
 72
27
 73
50
 74
50
 0
VERTEX
 8
KAT-HAUPTSEGEL
 10
0
 20
0
 30
0
 70
128
 71
50
 72
51
 73
26
 74
26
 0
VERTEX
 8
KAT-HAUPTSEGEL
 10
0
 20
0
 30
0
 70
128
 71
48
 72
49
 73
29
 74
29
 0
VERTEX
 8
KAT-HAUPTSEGEL
 10
0
 20
0
 30
0
 70
128
 71
28
 72
29
 73
49
 74
49
 0
VERTEX
 8
KAT-HAUPTSEGEL
 10
0
 20
0
 30
0
 70
128
 71
49
 72
50
 73
27
 74
27
 0
VERTEX
 8
KAT-HAUPTSEGEL
 10
0
 20
0
 30
0
 70
128
 71
27
 72
28
 73
49
 74
49
 0
VERTEX
 8
KAT-HAUPTSEGEL
 10
0
 20
0
 30
0
 70
128
 71
24
 72
53
 73
16
 74
16
 0
VERTEX
 8
KAT-HAUPTSEGEL
 10
0
 20
0
 30
0
 70
128
 71
16
 72
17
 73
24
 74
24
 0
VERTEX
 8
KAT-HAUPTSEGEL
 10
0
 20
0
 30
0
 70
128
 71
51
 72
7
 73
26
 74
26
 0
VERTEX
 8
KAT-HAUPTSEGEL
 10
0
 20
0
 30
0
 70
128
 71
7
 72
16
 73
53
 74
53
 0
VERTEX
 8
KAT-HAUPTSEGEL
 10
0
 20
0
 30
0
 70
128
 71
53
 72
26
 73
7
 74
7
 0
VERTEX
 8
KAT-HAUPTSEGEL
 10
0
 20
0
 30
0
 70
128
 71
17
 72
22
 73
24
 74
24
 0
VERTEX
 8
KAT-HAUPTSEGEL
 10
0
 20
0
 30
0
 70
128
 71
22
 72
25
 73
24
 74
24
 0
VERTEX
 8
KAT-HAUPTSEGEL
 10
0
 20
0
 30
0
 70
128
 71
23
 72
24
 73
25
 74
25
 0
VERTEX
 8
KAT-HAUPTSEGEL
 10
0
 20
0
 30
0
 70
128
 71
21
 72
52
 73
57
 74
57
 0
VERTEX
 8
KAT-HAUPTSEGEL
 10
0
 20
0
 30
0
 70
128
 71
52
 72
23
 73
25
 74
25
 0
VERTEX
 8
KAT-HAUPTSEGEL
 10
0
 20
0
 30
0
 70
128
 71
25
 72
57
 73
52
 74
52
 0
VERTEX
 8
KAT-HAUPTSEGEL
 10
0
 20
0
 30
0
 70
128
 71
43
 72
18
 73
59
 74
59
 0
VERTEX
 8
KAT-HAUPTSEGEL
 10
0
 20
0
 30
0
 70
128
 71
59
 72
41
 73
43
 74
43
 0
VERTEX
 8
KAT-HAUPTSEGEL
 10
0
 20
0
 30
0
 70
128
 71
18
 72
19
 73
59
 74
59
 0
VERTEX
 8
KAT-HAUPTSEGEL
 10
0
 20
0
 30
0
 70
128
 71
57
 72
58
 73
21
 74
21
 0
VERTEX
 8
KAT-HAUPTSEGEL
 10
0
 20
0
 30
0
 70
128
 71
20
 72
21
 73
58
 74
58
 0
VERTEX
 8
KAT-HAUPTSEGEL
 10
0
 20
0
 30
0
 70
128
 71
19
 72
20
 73
58
 74
58
 0
VERTEX
 8
KAT-HAUPTSEGEL
 10
0
 20
0
 30
0
 70
128
 71
58
 72
59
 73
19
 74
19
 0
VERTEX
 8
KAT-HAUPTSEGEL
 10
0
 20
0
 30
0
 70
128
 71
41
 72
36
 73
43
 74
43
 0
VERTEX
 8
KAT-HAUPTSEGEL
 10
0
 20
0
 30
0
 70
128
 71
42
 72
43
 73
36
 74
36
 0
VERTEX
 8
KAT-HAUPTSEGEL
 10
0
 20
0
 30
0
 70
128
 71
36
 72
31
 73
42
 74
42
 0
VERTEX
 8
KAT-HAUPTSEGEL
 10
0
 20
0
 30
0
 70
128
 71
14
 72
15
 73
33
 74
33
 0
VERTEX
 8
KAT-HAUPTSEGEL
 10
0
 20
0
 30
0
 70
128
 71
33
 72
34
 73
14
 74
14
 0
VERTEX
 8
KAT-HAUPTSEGEL
 10
0
 20
0
 30
0
 70
128
 71
32
 72
33
 73
15
 74
15
 0
VERTEX
 8
KAT-HAUPTSEGEL
 10
0
 20
0
 30
0
 70
128
 71
31
 72
32
 73
15
 74
15
 0
VERTEX
 8
KAT-HAUPTSEGEL
 10
0
 20
0
 30
0
 70
128
 71
15
 72
42
 73
31
 74
31
 0
VERTEX
 8
KAT-HAUPTSEGEL
 10
0
 20
0
 30
0
 70
128
 71
34
 72
35
 73
14
 74
14
 0
VERTEX
 8
KAT-HAUPTSEGEL
 10
0
 20
0
 30
0
 70
128
 71
10
 72
11
 73
39
 74
39
 0
VERTEX
 8
KAT-HAUPTSEGEL
 10
0
 20
0
 30
0
 70
128
 71
38
 72
39
 73
11
 74
11
 0
VERTEX
 8
KAT-HAUPTSEGEL
 10
0
 20
0
 30
0
 70
128
 71
11
 72
12
 73
38
 74
38
 0
VERTEX
 8
KAT-HAUPTSEGEL
 10
0
 20
0
 30
0
 70
128
 71
13
 72
14
 73
35
 74
35
 0
VERTEX
 8
KAT-HAUPTSEGEL
 10
0
 20
0
 30
0
 70
128
 71
35
 72
37
 73
13
 74
13
 0
VERTEX
 8
KAT-HAUPTSEGEL
 10
0
 20
0
 30
0
 70
128
 71
12
 72
13
 73
37
 74
37
 0
VERTEX
 8
KAT-HAUPTSEGEL
 10
0
 20
0
 30
0
 70
128
 71
37
 72
38
 73
12
 74
12
 0
SEQEND
 0
ENDSEC
 0
EOF
